HIERARCHY
ROOT Hips
{
	OFFSET 0.00000 0.00000 0.00000
	CHANNELS 6 Xposition Yposition Zposition Zrotation Yrotation Xrotation 
	JOINT LHipJoint
	{
		OFFSET 0 0 0
		CHANNELS 3 Zrotation Yrotation Xrotation
		JOINT LeftHip
		{
			OFFSET 1.59801 -1.77853 0.57028
			CHANNELS 3 Zrotation Yrotation Xrotation
			JOINT LeftKnee
			{
				OFFSET 2.39439 -6.57854 0.00000
				CHANNELS 3 Zrotation Yrotation Xrotation
				JOINT LeftAnkle
				{
					OFFSET 2.69334 -7.39989 0.00000
					CHANNELS 3 Zrotation Yrotation Xrotation
					JOINT LeftToe
					{
						OFFSET 0.09553 -0.26245 1.73747
						CHANNELS 3 Zrotation Yrotation Xrotation
						End Site
						{
							OFFSET 0.00000 -0.00000 0.89391
						}
					}
				}
			}
		}
	}
	JOINT RHipJoint
	{
		OFFSET 0 0 0
		CHANNELS 3 Zrotation Yrotation Xrotation
		JOINT RightHip
		{
			OFFSET -1.54704 -1.77852 0.57028
			CHANNELS 3 Zrotation Yrotation Xrotation
			JOINT RightKnee
			{
				OFFSET -2.40286 -6.60180 0.00000
				CHANNELS 3 Zrotation Yrotation Xrotation
				JOINT RightAnkle
				{
					OFFSET -2.63873 -7.24984 0.00000
					CHANNELS 3 Zrotation Yrotation Xrotation
					JOINT RightToe
					{
						OFFSET -0.15631 -0.42945 1.84436
						CHANNELS 3 Zrotation Yrotation Xrotation
						End Site
						{
							OFFSET -0.00000 -0.00000 0.95734
						}
					}
				}
			}
		}
	}
	JOINT lowerback
	{
		OFFSET 0 0 0
		CHANNELS 3 Zrotation Yrotation Xrotation
		JOINT Chest
		{
			OFFSET -0.00436 1.89866 -0.04018
			CHANNELS 3 Zrotation Yrotation Xrotation
			JOINT Chest2
			{
				OFFSET 0.02031 1.88273 0.09634
				CHANNELS 3 Zrotation Yrotation Xrotation
				JOINT lowerneck
				{
					OFFSET 0 0 0
					CHANNELS 3 Zrotation Yrotation Xrotation
					JOINT Neck
					{
						OFFSET -0.13105 1.89371 0.23083
						CHANNELS 3 Zrotation Yrotation Xrotation
						JOINT Head
						{
							OFFSET 0.17062 1.83990 -0.54062
							CHANNELS 3 Zrotation Yrotation Xrotation
							End Site
							{
								OFFSET 0.04576 1.94782 -0.21839
							}
						}
					}
				}
				JOINT LeftCollar
				{
					OFFSET 0 0 0
					CHANNELS 3 Zrotation Yrotation Xrotation
					JOINT LeftShoulder
					{
						OFFSET 3.12424 1.09204 0.22226
CHANNELS 3 Zrotation Xrotation Yrotation
						JOINT LeftElbow
						{
OFFSET 0 -5.292770 0.000000
CHANNELS 3 Zrotation Xrotation Yrotation
							JOINT LeftWrist
							{
OFFSET 0 -2.852260 0.000000
CHANNELS 3 Zrotation Xrotation Yrotation
								JOINT lhand
								{
									OFFSET 0 0 0
CHANNELS 3 Zrotation Xrotation Yrotation
									JOINT LFingers
									{
OFFSET 0 -0.602100 0.000000
CHANNELS 3 Zrotation Xrotation Yrotation
										End Site
										{
OFFSET 0 -0.485430 0.000000
										}
									}
								}
								JOINT LThumb
								{
OFFSET 0 0.000000 0.000000
CHANNELS 3 Zrotation Xrotation Yrotation
									End Site
									{
OFFSET 0 -0.492840 0.492840
									}
								}
							}
						}
					}
				}
				JOINT RightCollar
				{
					OFFSET 0 0 0
					CHANNELS 3 Zrotation Yrotation Xrotation
					JOINT RightShoulder
					{
						OFFSET -2.91709 1.01504 0.30199
CHANNELS 3 Zrotation Xrotation Yrotation
						JOINT RightElbow
						{
OFFSET 0 -5.133040 0.000000
CHANNELS 3 Zrotation Xrotation Yrotation
							JOINT RightWrist
							{
OFFSET 0 -2.743050 0.000000
CHANNELS 3 Zrotation Xrotation Yrotation
								JOINT rhand
								{
									OFFSET 0 0 0
CHANNELS 3 Zrotation Xrotation Yrotation
									JOINT RFingers
									{
OFFSET 0 -0.767980 0.000000
CHANNELS 3 Zrotation Xrotation Yrotation
										End Site
										{
OFFSET 0 -0.619160 0.000000
										}
									}
								}
								JOINT RThumb
								{
OFFSET 0 0.000000 0.000000
CHANNELS 3 Zrotation Xrotation Yrotation
									End Site
									{
OFFSET 0 -0.628620 0.628620
									}
								}
							}
						}
					}
				}
			}
		}
	}
}
MOTION
Frames: 7
Frame Time: 0.008333333333333333
-0.291256 16.935655 -1.164238 -2.995301 -1.152909 -2.589249 0.000000 0.000000 0.000000 -12.832387 -8.371394 -9.881734 3.454085 11.396209 33.628033 1.123625 -4.886946 -19.007491 1.362425 -7.387380 -20.868571 0.000000 0.000000 0.000000 22.920522 8.498583 -7.758157 -2.583183 -9.987578 28.936503 -1.203971 1.232201 -20.374718 -1.286530 7.187370 -20.271727 -4.944235 -3.315822 7.584620 -3.613286 -4.447228 9.604760 -0.932793 -2.406580 5.914817 -18.415560 -4.842230 -6.649658 30.645212 -10.646908 19.391544 13.902391 -4.234951 10.008255 0.000000 0.000000 0.000000 -86.979559 -70.103231 -135.272396 30.291298 -41.141732 11.600762 69.900817 18.215257 -43.896601 0.000000 0.000000 0.000000 -7.125000 0.000000 0.000000 128.216294 -76.117958 140.110301 0.000000 0.000000 0.000000 -128.141921 -71.102120 -30.816993 -34.542975 -44.482991 -14.492147 11.643273 -48.133760 -7.503200 0.000000 0.000000 0.000000 7.125000 0.000000 0.000000 27.102106 22.310971 16.700357
-0.459590 16.936560 -1.177870 -3.692364 0.381002 -2.410887 0.000000 0.000000 0.000000 -11.399594 -9.347893 -10.325672 3.491197 11.450704 33.815370 1.083920 -5.546763 -18.613135 1.325642 -7.291068 -20.580901 0.000000 0.000000 0.000000 24.242180 7.784763 -7.977876 -2.523138 -9.879864 28.588470 -1.162293 0.438620 -20.246757 -1.240884 7.061450 -19.898416 -5.873366 -3.015263 8.054748 -3.748784 -4.132339 9.037480 -0.506539 -2.278162 5.100402 -18.869181 -5.233630 -5.653064 31.869889 -11.608687 19.384329 14.545264 -4.764356 10.266280 0.000000 0.000000 0.000000 -83.726398 -71.446117 -130.779831 30.813786 -41.580634 11.946134 68.897667 13.834375 -39.791787 0.000000 0.000000 0.000000 -7.125000 0.000000 0.000000 113.705998 -36.330920 79.070575 0.000000 0.000000 0.000000 -129.290717 -72.522422 -30.080557 -34.963081 -44.784177 -14.787838 11.774989 -48.227624 -7.279379 0.000000 0.000000 0.000000 7.125000 0.000000 0.000000 27.232651 22.508015 16.661379
-0.609871 16.942959 -1.168756 -4.234408 2.174881 -2.317992 0.000000 0.000000 0.000000 -10.249937 -10.483057 -10.566993 3.486059 11.443090 33.789299 1.038793 -6.123004 -18.193167 1.365044 -7.394615 -20.889860 0.000000 0.000000 0.000000 25.284518 6.609097 -8.258172 -2.479120 -9.799939 28.331173 -1.163548 -0.010889 -20.405681 -1.030848 6.457426 -18.117854 -6.442958 -2.607427 8.252428 -4.136021 -3.618367 8.878339 -0.591494 -2.027903 4.820670 -18.946879 -6.110717 -4.854935 33.008733 -13.193559 18.801461 14.911944 -5.574207 10.589383 0.000000 0.000000 0.000000 -81.428821 -72.460119 -128.627069 30.933878 -41.680538 12.025888 69.967632 17.581490 -43.326339 0.000000 0.000000 0.000000 -7.125000 0.000000 0.000000 125.971304 -76.092393 138.223497 0.000000 0.000000 0.000000 -130.576828 -73.727693 -30.551165 -34.826398 -44.687661 -14.691144 11.092391 -49.312176 -7.044840 0.000000 0.000000 0.000000 7.125000 0.000000 0.000000 26.844842 22.751507 16.186525
-0.744941 16.947959 -1.156809 -4.845955 3.994022 -2.384236 0.000000 0.000000 0.000000 -9.082483 -11.468879 -10.698819 3.450558 11.390969 33.609991 0.958640 -7.040031 -17.482937 1.292335 -7.200803 -20.312583 0.000000 0.000000 0.000000 26.366667 5.474571 -8.352689 -2.433870 -9.716582 28.063777 -1.149360 -0.489211 -20.450335 -0.927122 6.133200 -17.171628 -6.616255 -2.001568 8.764383 -4.620795 -2.860704 8.676784 -0.992347 -1.624780 4.278207 -18.437334 -7.026135 -3.942050 34.133870 -14.890526 18.120967 15.097508 -6.413297 10.878163 0.000000 0.000000 0.000000 -78.672237 -72.971952 -126.539299 30.491159 -41.310602 11.732511 70.392046 18.246970 -44.165359 0.000000 0.000000 0.000000 -7.125000 0.000000 0.000000 130.235948 -75.771388 142.130710 0.000000 0.000000 0.000000 -127.954550 -75.018144 -29.329998 -34.092412 -44.153087 -14.177388 12.110836 -47.474252 -7.187253 0.000000 0.000000 0.000000 7.125000 0.000000 0.000000 27.466348 22.575885 16.794332
-0.856617 16.941398 -1.154610 -5.440806 5.655216 -2.276571 0.000000 0.000000 0.000000 -7.954967 -12.495647 -11.337836 3.496473 11.458303 33.841661 0.892210 -7.778004 -16.921067 1.242564 -7.068181 -19.917458 0.000000 0.000000 0.000000 27.310028 4.496423 -8.929358 -2.428687 -9.707063 28.033173 -1.141111 -0.956111 -20.554584 -0.895659 6.031203 -16.875127 -7.586849 -1.560608 8.644204 -4.402608 -2.286693 8.919832 -0.271505 -1.403665 4.655242 -18.453579 -7.835255 -3.643295 34.793800 -16.080977 17.180150 15.153066 -7.021583 11.022182 0.000000 0.000000 0.000000 -79.783837 -74.569883 -128.722297 30.605889 -41.407091 11.808373 72.814980 17.632277 -38.409136 0.000000 0.000000 0.000000 -7.125000 0.000000 0.000000 113.062416 -73.923525 129.174498 0.000000 0.000000 0.000000 -131.089554 -75.919685 -32.533427 -33.759461 -43.905724 -13.946020 12.276291 -46.891570 -7.434818 0.000000 0.000000 0.000000 7.125000 0.000000 0.000000 27.518902 22.343469 17.005697
-0.949601 16.926282 -1.144899 -6.247006 7.216067 -2.261423 0.000000 0.000000 0.000000 -6.651483 -13.507412 -12.022115 3.611111 11.624059 34.414652 0.858901 -8.547887 -16.697576 1.281945 -7.175078 -20.235045 0.000000 0.000000 0.000000 28.410012 3.313749 -9.269131 -2.341031 -9.542958 27.508886 -1.113972 -1.239612 -20.426757 -0.787773 5.665792 -15.817830 -7.585401 -1.042763 9.216738 -4.429340 -1.661059 8.814127 -0.303171 -1.073282 4.190889 -18.250227 -8.671693 -3.288926 35.729148 -17.468539 16.419319 15.300859 -7.710898 11.338611 0.000000 0.000000 0.000000 -78.866491 -75.898906 -129.974207 30.531715 -41.344823 11.759348 70.933302 14.968503 -40.247470 0.000000 0.000000 0.000000 -7.125000 0.000000 0.000000 115.372370 -75.308976 129.733006 0.000000 0.000000 0.000000 -130.904759 -76.729638 -32.975779 -33.520172 -43.726127 -13.780342 11.287331 -46.854504 -7.403965 0.000000 0.000000 0.000000 7.125000 0.000000 0.000000 26.895369 22.416925 16.463290
-1.025215 16.911527 -1.146222 -6.753141 8.786612 -2.382765 0.000000 0.000000 0.000000 -5.799934 -14.700477 -12.538605 3.704878 11.756968 34.877631 0.835126 -8.916012 -16.529613 1.295106 -7.210091 -20.339322 0.000000 0.000000 0.000000 29.142483 2.242002 -9.911048 -2.402469 -9.658420 27.877478 -1.138767 -1.501024 -20.755705 -0.745090 5.513893 -15.380232 -8.425650 -0.548555 9.762184 -3.992265 -1.104847 8.977169 0.594645 -0.849626 4.082216 -18.600144 -9.447936 -2.950511 36.463756 -18.520123 15.251998 15.440711 -8.297845 11.422433 0.000000 0.000000 0.000000 -80.427295 -77.550644 -133.877498 30.490991 -41.310537 11.732425 70.485660 13.928476 -41.165472 0.000000 0.000000 0.000000 -7.125000 0.000000 0.000000 118.061686 -75.681242 131.740200 0.000000 0.000000 0.000000 -133.260008 -77.389595 -35.991086 -33.424990 -43.654149 -13.714513 10.092655 -47.979215 -6.433520 0.000000 0.000000 0.000000 7.125000 0.000000 0.000000 26.323623 23.348665 15.377134
